<svg width="380" height="480" viewBox="0 0 380 480" fill="none" xmlns="http://www.w3.org/2000/svg">
<path fill-rule="evenodd" clip-rule="evenodd" d="M131.443 73.7414C128.261 67.0491 126.909 59.53 129.439 52.1885C136.728 31.0359 165.467 43.8194 168.389 56.2641C171.311 68.7089 163.222 96.1226 155.156 96.0457C151.94 96.0151 146.039 92.398 140.57 86.7182L136.902 116.783L112.726 110.305L131.443 73.7414Z" fill="#D4A181"/>
<path fill-rule="evenodd" clip-rule="evenodd" d="M140.217 74.4676C135.677 79.419 130.37 82.6416 126.227 81.5317C118.359 79.4234 115.583 67.4048 118.614 56.0944C118.72 55.697 118.834 55.3044 118.954 54.9168C109.101 58.3981 99.6696 67.9375 88.6567 64.9866C73.6737 60.9719 75.821 29.1567 96.7544 34.7658C110.991 38.5804 117.437 42.5324 122.65 47.2189C124.739 44.1822 127.31 41.8473 130.057 40.4718C130.752 40.0138 131.725 39.6581 132.924 39.4079C133.664 39.2277 134.409 39.119 135.154 39.0865C139.152 38.7242 144.677 39.1934 150.62 40.5656C151.73 40.8219 152.813 41.1 153.863 41.3965C155.367 35.8522 161.074 32.566 166.627 34.0539C172.191 35.5446 175.492 41.2632 174.002 46.8267C172.56 52.2071 167.164 55.472 161.778 54.3327C158.49 54.4561 154.403 54.0985 149.997 53.2291C149.994 54.9218 149.741 56.7782 149.198 58.8068C148.718 60.598 148.011 62.4447 147.13 64.2761C146.491 62.9088 145.431 61.8445 144.157 61.5031C140.593 60.5482 137.327 62.8151 136.493 65.9277C135.434 69.8781 136.949 73.347 140.217 74.4676Z" fill="#191847"/>
<path fill-rule="evenodd" clip-rule="evenodd" d="M81.8874 202.498L120.09 334.14L138.058 432.978H156.093L138.09 202.498H81.8874Z" fill="#BA8B72"/>
<path fill-rule="evenodd" clip-rule="evenodd" d="M64.719 202.498C67.3846 270.885 66.3333 308.185 65.7367 314.399C65.1401 320.612 61.7532 362.224 38.6737 435.064H57.4315C87.9965 365.187 98.6665 323.574 102.172 314.399C105.678 305.223 116.031 267.923 131.147 202.498H64.719Z" fill="#D4A181"/>
<path fill-rule="evenodd" clip-rule="evenodd" d="M81.0673 202.498C91.0043 247.796 108.191 320.104 132.627 419.42H159.005C160.954 317.481 152.666 250.388 138.313 202.498H81.0673Z" fill="#69A1AC"/>
<path fill-rule="evenodd" clip-rule="evenodd" d="M64.5857 202.498C67.1963 270.885 60.4307 338.259 39.4734 420.485H67.6172C98.2385 351.651 120.186 284.609 135.185 202.498H64.5857Z" fill="#89C5CC"/>
<path fill-rule="evenodd" clip-rule="evenodd" d="M36 448.622L37.035 431.935C43.0947 433.708 50.6847 433.012 59.8048 429.849C69.6112 436.796 81.9562 441.539 96.8397 444.079C97.9752 444.273 98.7386 445.35 98.5449 446.486C98.5323 446.559 98.5158 446.632 98.4955 446.704L97.0646 451.75H59.8048H38.07L36 448.622Z" fill="#191847"/>
<path fill-rule="evenodd" clip-rule="evenodd" d="M134.032 448.622L135.067 431.935C141.127 433.708 148.717 433.012 157.837 429.849C167.643 436.796 179.988 441.539 194.872 444.079C196.007 444.273 196.771 445.35 196.577 446.486C196.564 446.559 196.548 446.632 196.528 446.704L195.097 451.75H157.837H136.102L134.032 448.622Z" fill="#191847"/>
<path fill-rule="evenodd" clip-rule="evenodd" d="M156.508 143.87L195.599 130.631C202.769 124.637 209.574 120.2 216.014 117.319C217.902 116.895 221.055 116.993 217.28 121.589C213.504 126.186 209.74 131.19 210.928 133.021C212.116 134.851 216.155 133.299 217.442 136.219C218.3 138.166 211.575 139.817 197.266 141.171L167.181 160.321L156.508 143.87ZM209.436 170.189L226.612 164.347C230.283 156.374 233.651 152.631 236.716 153.117C239.256 152.439 233.305 162.283 237.917 162.151C242.528 162.02 254.814 155.857 256.396 157.827C258.737 160.742 254.955 167.757 251.392 170.95C244.734 176.919 239.816 178.494 228.143 179.634C222.041 180.23 215.178 182.372 207.557 186.06L209.436 170.189Z" fill="#D4A181"/>
<path fill-rule="evenodd" clip-rule="evenodd" d="M139.914 136.46C152.423 138.529 169.539 138.828 189.294 130.683L193.528 147.473C179.129 157.475 160.135 164.429 145.143 161.349C133.328 158.922 129.792 143.49 139.914 136.46Z" fill="#2026A2"/>
<path fill-rule="evenodd" clip-rule="evenodd" d="M152.327 164.377C165 170.021 187.917 170.042 221.077 164.44C225.994 181.817 227.559 193.863 225.772 200.579C196.539 209.841 172.498 212.03 153.524 209.108C152.148 220.43 148.901 230.86 142.596 239.803C129.633 258.187 77.7033 229.888 58.4978 230.269C53.5305 190.471 78.71 179.092 82.987 154.942C87.6709 128.494 116.089 91.5244 119.214 92.0754L147.711 97.1003C145.722 117.579 149.71 141.237 152.327 164.377Z" fill="#1F28CF"/>
</svg>
